SplineFontDB: 1.0
FontName: Tuffy_Bold
FullName: Tuffy_Bold
FamilyName: Tuffy
Weight: Bold
Copyright: Created by Thatcher Ulrich,,, with FontForge 1.0 (http://fontforge.sf.net)\n\nThis font,including hint instructions, has been donated to the Public Domain.  Do whatever you want with it.\n
Comments: 2004-9-1: Created.
Version: 001.000
ItalicAngle: 0
UnderlinePosition: -100
UnderlineWidth: 50
Ascent: 780
Descent: 220
XUID: [1021 745 1046372284 12407482]
FSType: 0
PfmFamily: 33
TTFWeight: 700
TTFWidth: 5
Panose: 2 11 8 3 6 1 0 0 0 0
LineGap: 90
VLineGap: 0
OS2WinAscent: 0
OS2WinAOffset: 1
OS2WinDescent: 0
OS2WinDOffset: 1
HheadAscent: 0
HheadAOffset: 1
HheadDescent: 0
HheadDOffset: 1
ScriptLang: 2
 1 latn 1 dflt 
 1 DFLT 1 dflt 
TtfTable: cvt  4
!$MDh
EndTtf
LangName: 1033 "" "" "" "" "" "" "" "" "" "Thatcher Ulrich" "" "http://tulrich.com+AAoA" "http://tulrich.com+AAoA" "Public Domain+AAoA" 
Encoding: iso8859_1
UnicodeInterp: none
DisplaySize: -36
AntiAlias: 1
FitToEm: 1
WinInfo: 32 16 4
Grid
-22 436 m 2
 774 436 l 0
480 830 m 29
 480 -16 l 29
562 832 m 25
 562 -14 l 25
-24 350 m 2
 772 350 l 0
-22 700 m 2
 774 700 l 0
-28 -14 m 2
 768 -14 l 0
26 832 m 25
 26 -14 l 25
-22 682 m 2
 774 682 l 0
EndSplineSet
BeginChars: 256 155
StartChar: exclam
Encoding: 33 33 1
Width: 220
Flags: W
HStem: -12 138<111 123> 662 20G<63 159>
VStem: 63 96<208 682>
Fore
42 57 m 4
 42 95.0879 72.9121 126 111 126 c 4
 149.088 126 180 95.0879 180 57 c 4
 180 18.9121 149.088 -12 111 -12 c 4
 72.9121 -12 42 18.9121 42 57 c 4
159 208 m 5
 63 208 l 5
 63 682 l 5
 159 682 l 5
 159 208 l 5
EndSplineSet
EndChar
StartChar: quotedbl
Encoding: 34 34 2
Width: 391
Flags: W
VStem: 26 96<492 725> 222 96<490 723>
Fore
222 490 m 1
 222 723 l 1
 318 723 l 1
 318 490 l 1
 222 490 l 1
26 492 m 1
 26 725 l 1
 122 725 l 1
 122 492 l 1
 26 492 l 1
EndSplineSet
EndChar
StartChar: numbersign
Encoding: 35 35 3
Width: 703
Flags: W
HStem: 175 96<27 177 273 407 503 659> 399 96<27 177 273 407 503 659>
VStem: 177 96<25 175 271 399 495 657> 407 96<25 175 271 399 495 657>
Fore
407 271 m 0
 407 399 l 0
 273 399 l 0
 273 271 l 0
 407 271 l 0
503 175 m 0
 503 25 l 1
 407 25 l 1
 407 175 l 0
 273 175 l 0
 273 25 l 1
 177 25 l 1
 177 175 l 0
 27 175 l 1
 27 271 l 1
 177 271 l 0
 177 399 l 0
 27 399 l 1
 27 495 l 1
 177 495 l 0
 177 657 l 1
 273 657 l 1
 273 495 l 0
 407 495 l 0
 407 657 l 1
 503 657 l 1
 503 495 l 0
 659 495 l 1
 659 399 l 1
 503 399 l 0
 503 271 l 0
 659 271 l 1
 659 175 l 1
 503 175 l 0
EndSplineSet
KernsSLIF: 36 -26 0 0
EndChar
StartChar: dollar
Encoding: 36 36 4
Width: 392
Flags: W
HStem: -1 173<177 226> 307 82<163.352 195> 521 161<130 195>
VStem: 2 94<446 464> 130 96<-1 85 597 682> 262 96<229 244>
Fore
11 198 m 1
 101 231 l 1
 114 198 129 172 184 172 c 0
 235 172 262 207 262 241 c 1
 262 277 233 307 181 307 c 0
 78 307 2 380 2 458 c 0
 2 536 61 573 130 597 c 0
 130 682 l 9
 226 682 l 17
 226 602 l 0
 284 588 342 541 353 488 c 0
 266 461 l 1
 257 489 229 521 184 521 c 1
 133 521 96 495 96 454 c 1
 96 412 133 389 180 389 c 1
 287 389 358 329 358 242 c 0
 358 157 299 108 226 85 c 0
 226 -1 l 9
 130 -1 l 17
 130 85 l 0
 76 102 26 138 11 198 c 1
EndSplineSet
EndChar
StartChar: percent
Encoding: 37 37 5
Width: 694
Flags: W
HStem: 64 74<512 530> 242 74<512 530> 379 74<118.154 131> 557 74<118.154 131>
VStem: 1 77<505 513> 178 79<505 513> 393 77<179.6 193> 570 79<179.6 193>
DStem: 426 618 540 618 89 64 203 64
Fore
470 190 m 0
 470 161.296 492.4 138 520 138 c 0
 547.6 138 570 161.296 570 190 c 0
 570 218.704 547.6 242 520 242 c 0
 492.4 242 470 218.704 470 190 c 0
393 190 m 0
 393 259.552 450.344 316 521 316 c 0
 591.656 316 649 259.552 649 190 c 0
 649 120.448 591.656 64 521 64 c 0
 450.344 64 393 120.448 393 190 c 0
78 505 m 4
 78 476.296 100.4 453 128 453 c 4
 155.6 453 178 476.296 178 505 c 4
 178 533.704 155.6 557 128 557 c 4
 100.4 557 78 533.704 78 505 c 4
1 505 m 4
 1 574.552 58.3438 631 129 631 c 4
 199.656 631 257 574.552 257 505 c 4
 257 435.448 199.656 379 129 379 c 4
 58.3438 379 1 435.448 1 505 c 4
203 64 m 1
 89 64 l 1
 426 618 l 0
 540 618 l 1
 203 64 l 1
EndSplineSet
EndChar
StartChar: ampersand
Encoding: 38 38 6
Width: 525
Flags: W
HStem: 338 93<220 233> 603 96<223 238>
VStem: 29 96<193 211> 58 96<514.348 534>
Fore
290 555.949 m 17xd0
 279.37 585.101 264 603 223 603 c 1
 182 603 154 570 154 531 c 1xd0
 154 494 170 431 231 431 c 1
 310 433 l 1
 310 338 l 1
 233 338 l 1
 174 338 125 266 125 203 c 5
 124 151 161.841 88.7881 228 81 c 1
 291.608 78.2529 309.465 119.449 317.459 165 c 1
 240 164 l 1
 240 260 l 1
 484 260 l 1
 484 164 l 1
 413 163.867 l 1
 400.264 77.8408 352 -14 228 -14 c 1
 116 -14 26 61 29 202 c 5xe0
 29 284 70 388 156 388 c 1
 88 388 58 476 58 531 c 1
 58 622 136 700 223 699 c 1
 306 700 346.426 658.633 370 608.876 c 9
 290 555.949 l 17xd0
EndSplineSet
EndChar
StartChar: quotesingle
Encoding: 39 39 7
Width: 178
Flags: W
VStem: 26 96<492 725>
Fore
26 492 m 1
 26 725 l 1
 122 725 l 1
 122 492 l 1
 26 492 l 1
EndSplineSet
EndChar
StartChar: parenleft
Encoding: 40 40 8
Width: 271
Flags: W
HStem: 0 21G<115 223>
Fore
115 0 m 1
 39.2178 116.208 1.67871 240.598 2.99512 366 c 1
 4.26074 486.521 41.415 607.975 115 724 c 1
 223 724 l 1
 140.173 602.701 99.9932 483.404 98.9941 366 c 1
 97.9385 241.93 140.639 119.973 223 0 c 1
 115 0 l 1
EndSplineSet
EndChar
StartChar: parenright
Encoding: 41 41 9
Width: 274
Flags: W
HStem: 0 21G<2 110>
Fore
110 0 m 1
 2 0 l 1
 85.0254 120.939 127.747 243.895 125.972 369 c 1
 124.319 485.437 84.1221 603.734 2 724 c 1
 110 724 l 1
 183.585 607.975 220.739 486.521 222.004 366 c 1
 223.321 240.598 185.782 116.208 110 0 c 1
EndSplineSet
EndChar
StartChar: asterisk
Encoding: 42 42 10
Width: 444
Flags: W
DStem: 87.2344 451.615 156.189 492.176 146.419 350.271 214.729 391.198 147.707 270.649 217.306 231.953 91.5947 164.134 165.721 128.845 217.306 231.953 285.616 269.88 272.804 136.146 341.759 176.708 269.052 493.596 340.744 454.555 214.729 391.198 284.328 350.502
Fore
26 270 m 1
 26.71 350.63 l 1
 146.419 350.271 l 1
 87.2344 451.615 l 1
 156.189 492.176 l 1
 214.729 391.198 l 1
 269.052 493.596 l 1
 340.744 454.555 l 1
 284.328 350.502 l 1
 402.311 350.137 l 1
 402.111 269.651 l 5
 285.616 269.88 l 1
 341.759 176.708 l 1
 272.804 136.146 l 1
 217.306 231.953 l 1
 165.721 128.845 l 1
 91.5947 164.134 l 1
 147.707 270.649 l 1
 26 270 l 1
EndSplineSet
EndChar
StartChar: plus
Encoding: 43 43 11
Width: 450
Flags: W
HStem: 254 96<26 161 259 394>
VStem: 161 100<123 254 350 481>
Fore
26 350 m 5
 26 350 l 5
 159 350 l 5
 159 481 l 5
 259 481 l 5
 259 350 l 5
 394 350 l 5
 394 254 l 5
 261 254 l 5
 261 123 l 5
 161 123 l 5
 161 254 l 5
 26 254 l 5
 26 350 l 5
EndSplineSet
EndChar
StartChar: comma
Encoding: 44 44 12
Width: 200
Flags: W
DStem: 80 0 155 45 38 -96 101 -96
Fore
155 45 m 1
 101 -96 l 1
 38 -96 l 1
 80 0 l 1
 48 6 26 26 26 60 c 1
 26 96 46 124.459 87.7178 124.459 c 1
 136 124.459 155 90 155 45 c 1
EndSplineSet
EndChar
StartChar: hyphen
Encoding: 45 45 13
Width: 448
Flags: W
HStem: 254 96<26 401>
Fore
26 350 m 1
 26 350 l 1
 401 350 l 1
 401 254 l 1
 26 254 l 1
 26 350 l 1
EndSplineSet
EndChar
StartChar: period
Encoding: 46 46 14
Width: 195
Flags: W
HStem: 0 21G<74 112>
Fore
153 63 m 1
 153 26 134 0 90 0 c 1
 58 0 27 24 27 63 c 1
 27 100 54 127.459 88.7178 127.459 c 1
 132 127.459 153 104 153 63 c 1
EndSplineSet
EndChar
StartChar: slash
Encoding: 47 47 15
Width: 505
Flags: W
HStem: 0 21G<0 126>
DStem: 336 723 462 723 0 0 126 0
Fore
126 0 m 1
 0 0 l 1
 336 723 l 0
 462 723 l 1
 126 0 l 1
EndSplineSet
EndChar
StartChar: zero
Encoding: 48 48 16
Width: 481
Flags: W
HStem: -14 96<212.408 228> 603 96<211.04 227>
VStem: 0 96<348 371> 344 96<349 371>
Fore
0 348 m 1
 0 486 63 700 224 699 c 1
 375 700 442 480 440 349 c 1
 440 184 375 -14 225 -14 c 1
 60.2773 -14.168 0 188 0 348 c 1
96 348 m 1
 96 272 123 82 225 82 c 1
 311 82 344 274 344 349 c 1
 344 428 309 603 224 603 c 1
 123 603 96 428 96 348 c 1
EndSplineSet
EndChar
StartChar: one
Encoding: 49 49 17
Width: 301
Flags: W
HStem: 0 21G<144 240> 662 20G<144 240>
VStem: 144 96<0 682>
Fore
70 488 m 1
 9 562 l 1
 144 682 l 1
 240 682 l 1
 240 0 l 1
 144 0 l 1
 145 552 l 5
 70 488 l 1
EndSplineSet
EndChar
StartChar: two
Encoding: 50 50 18
Width: 499
Flags: W
HStem: 0 21G<26 440>
VStem: 321 96<452 465>
Fore
111 508 m 9
 24 551.123 l 17
 50 631.76 126 699.72 221 699.72 c 1
 338 699.72 417 594 417 452.28 c 1
 417 350 299 234 212 140.88 c 1
 167 95.96 l 1
 440 95.96 l 17
 440 0 l 1
 26 0 l 1
 26 96.6797 l 1
 212 282.44 l 1
 280 343.92 321 400 321 452.28 c 1
 321 552 277 603.22 221 603.22 c 1
 171 603.22 129 562 111 508 c 9
EndSplineSet
EndChar
StartChar: three
Encoding: 51 51 19
Width: 454
Flags: W
Fore
121 557 m 9
 39.6602 607.969 l 17
 68 648 108 702.439 201.03 702.439 c 1
 320 702.439 395.19 612.34 395.19 516.939 c 1
 393.21 423.66 354 362.24 263.4 362.24 c 1
 366 362 413.01 278 413.01 190.46 c 1
 413.01 44 318 -14 204 -12 c 1
 76 -14 26.5283 54.6113 13.9199 145.799 c 9
 110 158 l 17
 117.914 109.716 144 84.8604 204 84.8604 c 1
 274 84.8604 317.01 134 317.01 187.28 c 1
 317.01 258 252 312.36 171.03 312.36 c 1
 122.82 312.32 l 1
 122.82 408.68 l 1
 171.03 408.82 l 1
 270 408.82 299.11 466 299.11 516.939 c 1
 296.56 594.167 252 606.34 201.03 606.34 c 1
 151.078 606.025 132.1 583.234 121 557 c 9
EndSplineSet
EndChar
StartChar: four
Encoding: 52 52 20
Width: 535
Flags: W
HStem: 1 21G<286 382> 232 96<128 286 382 481> 662 20G<285 381>
VStem: 286 96<1 231 328 682>
DStem: 80 627 179 627 22 232 128 328
Fore
382 1 m 1
 286 1 l 1
 286 232 l 1
 22 232 l 9
 80 627 l 1
 179 627 l 1
 128 328 l 1
 286 328 l 1
 285 682 l 1
 381 682 l 1
 382 327 l 9
 481 327 l 17
 481 231 l 1
 382 231 l 1
 382 1 l 1
EndSplineSet
EndChar
StartChar: five
Encoding: 53 53 21
Width: 502
Flags: W
DStem: 56.9404 681.51 149.681 586.671 18.4199 342.88 124 428
Fore
229.58 326.99 m 1
 18.4199 342.88 l 9
 56.9404 681.51 l 1
 427.86 681.51 l 1
 427.86 585.03 l 1
 149.681 586.671 l 1
 124 428 l 1
 229.58 423.37 l 1
 378 412 451.071 329.627 451.44 202.73 c 1
 451.42 56.3213 364 -12 236 -12 c 1
 142.882 -12.5762 53.7871 26.3291 -5.12012 122.07 c 9
 63.2197 189.65 l 17
 103.041 128.778 160 84.6504 236 84.6504 c 1
 312 84.6504 354.93 130.79 354.93 203.82 c 1
 354.93 291.02 294 320 229.58 326.99 c 1
EndSplineSet
EndChar
StartChar: six
Encoding: 54 54 22
Width: 464
Flags: W
Fore
328.96 193.57 m 1
 328.96 256 290 310.45 222.88 310.45 c 1
 154 310.45 112.92 258 112.92 198.9 c 1
 112.92 130 166 82.3496 226 82.3496 c 1
 290 82.3496 328.96 130 328.96 193.57 c 1
226 -14 m 0
 68.7024 -14 6.99737 109.751 2.50491 242 c 0
 1.43847 273.394 3.39231 307.389 8 350 c 1
 16 564 123.04 699.29 238.48 699.29 c 1
 331.494 695.24 396.963 627.49 422.56 534.12 c 1
 344 500 l 1
 330.974 564.056 291.52 602.37 238.48 602.37 c 1
 163.6 602.37 114 502 104.32 352.08 c 1
 132 390 184 406.47 222.88 406.47 c 1
 380 406.47 425.68 302 425.68 194.46 c 1
 425.68 84 346.64 -14 226 -14 c 0
EndSplineSet
EndChar
StartChar: seven
Encoding: 55 55 23
Width: 532
Flags: W
HStem: 0 21G<115.6 220.56>
DStem: 341.88 585.16 481.14 681.64 115.6 0 220.56 0
Fore
226.62 681.64 m 1
 481.14 681.64 l 1
 220.56 0 l 1
 115.6 0 l 1
 341.88 585.16 l 1
 26.6396 585.16 l 1
 26.6396 681.64 l 1
 226.62 681.64 l 1
EndSplineSet
EndChar
StartChar: eight
Encoding: 56 56 24
Width: 480
Flags: W
Fore
96.54 192 m 1
 96.54 127.564 149.713 83.5664 218.713 83.5664 c 1
 283.713 83.5664 340.675 127.564 340.675 188.852 c 1
 340.675 259.564 289.713 303.385 215.502 303.385 c 1
 149.713 303.385 95.8916 256.614 96.54 192 c 1
102.961 515.363 m 1
 102.961 454.564 143.713 414.621 215.502 414.621 c 1
 283.713 414.621 325.972 456.564 325.972 514.215 c 1
 325.972 568.564 283.713 605.661 215.502 605.661 c 1
 149.713 605.661 102.961 564.564 102.961 515.363 c 1
215.502 700.859 m 1
 339.713 700.859 422.442 625.564 422.442 513.215 c 1
 422.442 413.564 369.713 360.564 302.933 360.053 c 1
 391.713 360.053 436.708 282.564 436.708 189 c 1
 436.708 64.5645 339.713 -13.4355 218.713 -12.4355 c 1
 95.7129 -13.4355 0 69.5645 0 192 c 1
 5.71289 281.564 35.7129 359.002 128.071 359.002 c 1
 57.7129 359.002 5.71289 419.564 6.4209 515.313 c 1
 5.71289 621.564 95.7129 700.859 215.502 700.859 c 1
EndSplineSet
EndChar
StartChar: nine
Encoding: 57 57 25
Width: 467
Flags: W
HStem: 680 20G<153.5 278.5>
VStem: 15 96<495 510> 315 97<289 308>
Fore
111 495.44 m 1
 111 431 158 386.3 217 386.3 c 1
 273 386.3 316 430 316 493.23 c 1
 316 560 273 603.37 216 603.37 c 1
 155 603.37 111 555 111 495.44 c 1
218 700 m 1
 339 700 411.979 628 411.979 494 c 1
 415.252 434.663 416 381 412 308.19 c 1
 412 145 274 50 159 -18.2803 c 9
 105 61 l 17
 190 116 315 194.69 315 307.04 c 9
 315 330.11 l 17
 296 311 267.599 288.981 217 289.93 c 1
 107 289.93 15 370 15 495.37 c 1
 15 612 89 700 218 700 c 1
EndSplineSet
EndChar
StartChar: colon
Encoding: 58 58 26
Width: 235
Flags: W
Fore
50.6396 49.3594 m 4
 50.6396 84.335 79.0254 112.72 114 112.72 c 4
 148.975 112.72 177.36 84.335 177.36 49.3594 c 4
 177.36 14.3848 148.975 -14 114 -14 c 4
 79.0254 -14 50.6396 14.3848 50.6396 49.3594 c 4
50.6396 380.64 m 4
 50.6396 415.615 79.0254 444 114 444 c 4
 148.975 444 177.36 415.615 177.36 380.64 c 4
 177.36 345.665 148.975 317.28 114 317.28 c 4
 79.0254 317.28 50.6396 345.665 50.6396 380.64 c 4
EndSplineSet
EndChar
StartChar: semicolon
Encoding: 59 59 27
Width: 232
Flags: W
DStem: 102 0 177 45 60 -96 123 -96
Fore
50.6396 380.64 m 4
 50.6396 415.615 79.0254 444 114 444 c 4
 148.975 444 177.36 415.615 177.36 380.64 c 4
 177.36 345.665 148.975 317.28 114 317.28 c 4
 79.0254 317.28 50.6396 345.665 50.6396 380.64 c 4
177 45 m 1
 123 -96 l 1
 60 -96 l 1
 102 0 l 1
 70 6 48 26 48 60 c 1
 48 96 68 124.459 109.718 124.459 c 1
 158 124.459 177 90 177 45 c 1
EndSplineSet
EndChar
StartChar: less
Encoding: 60 60 28
Width: 427
Flags: W
DStem: -1 352 111 351 236 36 354 36 236 662 354 662 -1 352 111 351
Fore
236 36 m 1
 -1 352 l 1
 236 662 l 1
 354 662 l 1
 111 351 l 1
 354 36 l 1
 236 36 l 1
EndSplineSet
EndChar
StartChar: equal
Encoding: 61 61 29
Width: 448
Flags: W
HStem: 206 96<26 401> 398 96<26 401>
Fore
26 302 m 1
 26 302 l 1
 401 302 l 1
 401 206 l 1
 26 206 l 1
 26 302 l 1
26 494 m 1
 26 494 l 1
 401 494 l 1
 401 398 l 1
 26 398 l 1
 26 494 l 1
EndSplineSet
EndChar
StartChar: greater
Encoding: 62 62 30
Width: 437
Flags: W
DStem: 13 659 131 659 256 348 368 349 256 348 368 349 13 33 131 33
Fore
131 33 m 5
 13 33 l 5
 256 348 l 5
 13 659 l 5
 131 659 l 5
 368 349 l 5
 131 33 l 5
EndSplineSet
EndChar
StartChar: question
Encoding: 63 63 31
Width: 502
Flags: W
HStem: 605 96<223 241>
VStem: 188 96<187 276> 353 96<512 517>
Fore
172.64 49.3594 m 0
 172.64 84.335 201.025 112.72 236 112.72 c 0
 270.975 112.72 299.36 84.335 299.36 49.3594 c 0
 299.36 14.3848 270.975 -14 236 -14 c 0
 201.025 -14 172.64 14.3848 172.64 49.3594 c 0
284 276 m 1
 284 187 l 1
 188 187 l 1
 189 251 188 278 188 278 c 1
 188 383 353 411 353 512 c 1
 353 560 310 605 236 605 c 1
 150 605 133 581 83 503 c 1
 0 551 l 1
 72 664 116 700 233 701 c 1
 338 700 449 658 449 514 c 1
 449 382 284 337 284 276 c 1
EndSplineSet
EndChar
StartChar: at
Encoding: 64 64 32
Width: 721
Flags: W
HStem: -14 74<352 369> 180 72<352 356> 416 78<335 354>
VStem: 0 78<326 371>
Fore
572 205.177 m 0
 533.16 205.177 506.347 291.656 502 312 c 1
 466.347 198.73 386 180 352 180 c 1
 278 180 179.378 226 179.378 334 c 0
 179.378 462 278 494 354 494 c 1
 392 496 450 494 480 482 c 1
 522 464 562 342 574 328 c 1
 591.866 352.737 598.607 396 598.607 436 c 0
 598.607 568 476 622.896 352 622.896 c 0
 194 622.896 78 492 78 350 c 0
 78 192 182 60 352 60 c 1
 466 60 544 108 582 140 c 1
 620 68 l 0
 582 40 476 -14 352 -14 c 1
 134 -14 0 144 0 351 c 0
 0 554 146 700.952 350 700.474 c 0
 552 700 675.126 593.967 676.269 434 c 0
 676.856 351.892 628 205.177 572 205.177 c 0
352 416 m 1
 284 416 257 376 257 332 c 1
 257 282 298 252 352 252 c 1
 382 252 430 304 430 330 c 1
 430 418 396 416 352 416 c 1
EndSplineSet
EndChar
StartChar: A
Encoding: 65 65 0
Width: 597
Flags: W
HStem: 0 21G<482 587> 213 95<215 404> 662 20G<246 342>
DStem: 246 682 183 213 0.692383 0.0830078 104.928 0.0830078 404 213 342 682 482 0 587 0
Fore
294 565 m 1
 215 308 l 1
 371 308 l 1
 294 565 l 1
404 213 m 0
 183 213 l 0
 104.928 0.0830078 l 0
 0.692383 0.0830078 l 1
 246 682 l 0
 246 682 304.56 682 342 682 c 17
 587 0 l 1
 482 0 l 1
 404 213 l 0
EndSplineSet
KernsSLIF: 86 -100 0 0 84 -46 0 0
EndChar
StartChar: B
Encoding: 66 66 1
Width: 516
Flags: W
HStem: 0 21G<26 122 122 170>
Fore
120.02 314.9 m 1
 120.02 96.54 l 1
 357 96.54 402.939 134 402.939 202.88 c 0
 402.939 258 354 314.9 120.02 314.9 c 1
120.02 585.8 m 1
 120.02 412.03 l 1
 300 412.03 371 471 371 514 c 1
 371 549 360 585.8 120.02 585.8 c 1
26 681.34 m 0
 122 681.34 l 1
 170.05 681.34 l 1
 405 682 466.479 597 466.479 513.89 c 1
 466.479 423 364 366 291 366 c 1
 440 366 497.149 283 497.149 200.25 c 1
 497.149 111 475 0 170 0 c 1
 122 0 l 1
 26 0 l 1
 26 681.34 l 0
EndSplineSet
EndChar
StartChar: C
Encoding: 67 67 2
Width: 506
Flags: HW
HStem: -14 96<288 305> 604 96<289 305>
Fore
511.751 110.979 m 4
 467.749 37.6387 396.172 -14 288.225 -14 c 5
 82.1973 -14 0 182 0 350 c 5
 0 500 81.1299 700 289.293 700 c 4
 394.117 700 458.812 645.919 502.098 579.716 c 13
 468.315 562.881 415.476 536.549 415.476 536.549 c 4
 386.565 576.677 345.016 604 289.293 604 c 5
 155.855 604 96.4805 462 96.4805 350 c 5
 96.4805 228 160.125 82 288.225 82 c 5
 350.821 82 406.071 117.097 435.405 170 c 13
 465.18 146.981 511.751 110.979 511.751 110.979 c 4
EndSplineSet
EndChar
StartChar: D
Encoding: 68 68 3
Width: 525
Flags: W
HStem: 0 21G<26 122> 588 94<122 149.336>
VStem: 26 97<0 588> 405 90<350 369>
Fore
405 350 m 5
 405 454 302 588 123 588 c 1
 124 94 l 1
 292 94 405 226 405 350 c 5
495 350 m 5
 495 80 282.516 -8.03711 122 0 c 1
 26 0 l 1
 26 682 l 1
 122 682 l 1
 354 682 495 524 495 350 c 5
EndSplineSet
EndChar
StartChar: E
Encoding: 69 69 4
Width: 498
Flags: HW
HStem: 0 87<134 455> 305 90<140 455> 596 86<26 455>
VStem: 26 108<0 305>
Fore
26 682 m 0
 455 682 l 1
 455 586 l 0
 122 586 l 0
 122 398 l 1
 455 398 l 1
 455 302 l 0
 122 302 l 0
 122 96 l 0
 455 96 l 0
 455 0 l 0
 26 0 l 1
 26 682 l 0
EndSplineSet
KernsSLIF: 82 19 0 0
EndChar
StartChar: F
Encoding: 70 70 5
Width: 494
Flags: HW
HStem: 0 21G<26 129> 306 90<128 455> 597 85<26 455>
VStem: 26 103<0 306 0 597>
Fore
26 682 m 0
 455 682 l 1
 455 586 l 0
 122 586 l 0
 122 399 l 1
 455 399 l 1
 455 303 l 0
 122 303 l 1
 122 0 l 1
 26 0 l 1
 26 682 l 0
EndSplineSet
EndChar
StartChar: G
Encoding: 71 71 6
Width: 593
Flags: HW
HStem: -14 88<268 273> 231 85<229 375 229 530> 619 81<241.41 273>
VStem: 0 97<350 371>
Fore
520.526 110.979 m 1
 476.526 37.6387 404.947 -14 297 -14 c 1
 90.9717 -14 8.77539 181.999 8.77539 350 c 1
 8.77539 500 89.9053 700 298.068 700 c 0
 402.892 700 467.586 645.918 510.876 579.715 c 9
 477.086 562.88 424.246 536.549 424.246 536.549 c 0
 395.34 576.677 353.791 604 298.068 604 c 1
 164.63 604 105.255 462 105.255 350 c 1
 105.255 227.999 168.9 82 297 82 c 1
 359.596 82 399.195 122.132 436.176 169.999 c 0
 448.526 185.979 446.526 212.979 446.526 232.979 c 1
 266.526 232.979 l 1
 266.526 328.979 l 1
 560.526 328.979 l 1
 560.526 232.979 l 1
 560.526 194.979 547.526 161.979 520.526 110.979 c 1
EndSplineSet
KernsSLIF: 84 -32 0 0
EndChar
StartChar: H
Encoding: 72 72 7
Width: 515
Flags: W
HStem: 0 21G<26 122 383 479> 301 96<122 383> 662 20G<26 122 383 479>
VStem: 26 96<0 301 0 682> 383 96<0 682>
Fore
26 682 m 0
 122 682 l 1
 122 397 l 1
 383 397 l 1
 383 682 l 1
 479 682 l 1
 479 0 l 1
 383 0 l 1
 383 301 l 0
 122 301 l 1
 122 0 l 1
 26 0 l 1
 26 682 l 0
EndSplineSet
EndChar
StartChar: I
Encoding: 73 73 8
Width: 344
Flags: W
HStem: 0 96<18 105 200 288> 586 96<18 105 105 288>
VStem: 104 96<96 586>
Fore
201 0 m 0
 105 0 l 1
 18 0 l 1
 18 96 l 1
 104 96 l 1
 105 586 l 1
 18 586 l 1
 18 682 l 1
 105 682 l 0
 201 682 l 1
 288 682 l 1
 288 586 l 1
 201 586 l 1
 200 94 l 1
 288 94 l 1
 288 0 l 1
 201 0 l 0
EndSplineSet
EndChar
StartChar: J
Encoding: 74 74 9
Width: 543
Flags: W
HStem: -10 96<185 193> 586 96<188 300 188 508>
VStem: 300 96<222 586>
Fore
0 182 m 0
 89 224 l 1
 111 171 138 86 189 86 c 1
 279 86 300 153 300 252 c 1
 300 586 l 1
 188 586 l 1
 188 682 l 1
 508 682 l 1
 508 586 l 1
 396 586 l 1
 396 250 l 1
 396 72 327 -10 187 -10 c 1
 45 -10 18 135 0 182 c 0
EndSplineSet
EndChar
StartChar: K
Encoding: 75 75 10
Width: 508
Flags: W
HStem: 0 21G<26 134 375 500> 662 20G<26 136 374 502>
VStem: 26 108<0 295 0 682>
DStem: 374 682 502 682 136 404 228 350
Fore
26 682 m 0
 136 682 l 1
 136 404 l 1
 374 682 l 1
 502 682 l 1
 228 350 l 1
 500 0 l 1
 375 0 l 1
 134 295 l 1
 134 314.7 134 19.7 134 0 c 1
 26 0 l 1
 26 682 l 0
EndSplineSet
EndChar
StartChar: L
Encoding: 76 76 11
Width: 494
Flags: W
HStem: 0 97<135 466> 662 20G<26 136>
VStem: 26 110<0 682>
Fore
26 682 m 1
 136 682 l 1
 136 97 l 1
 466 97 l 1
 466 0 l 1
 26 0 l 1
 26 682 l 1
EndSplineSet
EndChar
StartChar: M
Encoding: 77 77 1
Width: 652
Flags: HW
HStem: 0 21G<0 96 522 618> 662 20G<48 192 421 561>
DStem: 48 682 138 552 0 0 96 0 138 552 192 682 274.317 154 317 319 421 682 477 551 317 319 368 154 477 551 561 682 522 0 618 0
Fore
-9 0 m 5
 48 682 l 6
 192 682 l 5
 307 319 l 6
 421 682 l 5
 561 682 l 5
 618 0 l 5
 522 0 l 6
 477 552 l 5
 352 154 l 4
 258.317 154 l 5
 132 552 l 4
 87 0 l 5
 -9 0 l 5
EndSplineSet
EndChar
StartChar: N
Encoding: 78 78 2
Width: 555
Flags: W
HStem: 0 21G<26 123 424 517.683> 662 20G<26 124 421.683 517.683>
VStem: 26 97<0 500>
DStem: 123 500 124 682 424 0 422 195
Fore
26 0 m 1
 26 682 l 2
 124 682 l 1
 422 195 l 2
 421.683 682 l 1
 517.683 682 l 1
 517.683 0 l 0
 424 0 l 1
 123 500 l 0
 123 0 l 1
 26 0 l 1
EndSplineSet
EndChar
StartChar: O
Encoding: 79 79 3
Width: 575
Flags: W
HStem: -14 96<274 278> 604 96<275 277>
VStem: 4 96<350 371> 442 96<350 371>
Fore
442 350 m 1
 444 462 394 604 275 604 c 1
 150 604 100 462 100 350 c 1
 100 228 154 82 274 82 c 1
 390 82 442 230 442 350 c 1
4 350 m 1
 4 500 80 700 275 700 c 1
 474 700 538 500 538 350 c 1
 538 180 470 -14 274 -14 c 1
 81 -14 4 182 4 350 c 1
EndSplineSet
KernsSLIF: 65 -46 0 0 84 -53 0 0
EndChar
StartChar: P
Encoding: 80 80 4
Width: 501
Flags: W
HStem: 0 21G<26 127> 284 92<127 164.202> 601 81<122 160.126>
VStem: 26 101<0 284 0 601> 366 96<486 497>
Fore
127 376 m 1
 254 378 366 392 366 486 c 1
 366.102 582.071 230 601 127 601 c 1
 127 376 l 1
26 682 m 0
 122 682 l 1
 298 682 462 618 462 486 c 0
 462 323.892 296 284 127 284 c 1
 127 87 l 0
 127 87 l 0
 127 0 l 0
 26 0 l 1
 26 682 l 0
EndSplineSet
EndChar
StartChar: Q
Encoding: 81 81 5
Width: 585
Flags: W
HStem: -14 96<268 289> 604 96<255 284>
VStem: 0 96<350 371> 438 96<350 371>
DStem: 258 216 322 290 360.892 122 408.688 210
Fore
438 350 m 1
 438 444 396 604 270 604 c 1
 140 604 96 444 96 350 c 1
 96 250 168 82 282 82 c 1
 314.27 82 340.306 95.9072 360.892 122 c 1
 258 216 l 1
 322 290 l 1
 408.688 210 l 1
 423 246 438 304 438 350 c 1
0 350 m 1
 0 492 63 700 273 700 c 1
 475 700 534 476 534 350 c 1
 534 282.575 507 184 480 134 c 1
 567 54 l 1
 503 -14 l 1
 432 52 l 1
 393.323 14.958 352 -14 276 -14 c 1
 83 -14 0 192 0 350 c 1
EndSplineSet
EndChar
StartChar: R
Encoding: 82 82 6
Width: 499
Flags: MW
Fore
122 405 m 1
 228 405 363 404 363 494 c 1
 363 581 225 586 122 586 c 1
 122 405 l 1
26 682 m 0
 122 682 l 1
 298 682 459 626 459 494 c 0
 459 370 351.779 328.085 238 310.468 c 1
 484 0 l 1
 367 0 l 5
 122 303 l 1
 122 87 l 0
 122 87 l 0
 122 0 l 0
 26 0 l 1
 26 682 l 0
EndSplineSet
EndChar
StartChar: S
Encoding: 83 83 7
Width: 478
Flags: W
HStem: -14 96<240 257> 604 96<208 242>
VStem: 17 96<498.913 516> 367 96<186 195>
Fore
0 142 m 1
 78 199 l 1
 120.406 133.182 175 82 240 82 c 1
 303 82 367 116 367 186 c 1
 367 230 303.454 292.062 208 320 c 0
 126 344 17 393 17 513 c 1
 17 629 129 700 229 700 c 1
 335 700 409 630 441 579 c 1
 356 534 l 1
 336 576 285 604 227 604 c 1
 173 604 113 580 113 512.592 c 1
 113 434 206 422 260 400 c 1
 330 376 463 312 463 186 c 1
 463 74 359 -14 240 -14 c 1
 141 -14 79.0137 35.0283 0 142 c 1
EndSplineSet
EndChar
StartChar: T
Encoding: 84 84 8
Width: 563
Flags: W
HStem: 0 21G<239 335> 586 96<26 239 26 538>
VStem: 239 96<0 585>
Fore
26 682 m 0
 538 682 l 1
 538 585 l 0
 335 585 l 1
 335 0 l 1
 239 0 l 1
 239 586 l 1
 26 586 l 1
 26 682 l 0
EndSplineSet
KernsSLIF: 65 -52 0 0
EndChar
StartChar: U
Encoding: 85 85 9
Width: 560
Flags: W
HStem: -14 96<233 251> 662 20G<26 122 424 522>
VStem: 26 96<310 682> 425 97<0 682>
Fore
424 682 m 1
 522 682 l 1
 522 0 l 1
 425 0 l 1
 425 139 l 1
 425 109 362 -14 240 -14 c 1
 96 -14 26 146 26 310 c 1
 26 682 l 1
 122 682 l 1
 122 310 l 1
 122 198 164 82 239 82 c 1
 322 82 425 246 425 507 c 1
 424 682 l 1
EndSplineSet
EndChar
StartChar: V
Encoding: 86 86 10
Width: 569
Flags: W
HStem: 0 21G<214 352> 662 20G<15 129 441 549>
DStem: 15 682 129 682 214 0 283 122 441 682 549 682 283 122 352 0
Fore
441 682 m 1
 549 682 l 1
 352 0 l 1
 214 0 l 1
 15 682 l 1
 129 682 l 1
 283 122 l 1
 441 682 l 1
EndSplineSet
KernsSLIF: 65 -114 0 0 69 -33 0 0
EndChar
StartChar: W
Encoding: 87 87 11
Width: 632
Flags: W
HStem: 0 21G<57 197 426 570> 662 20G<0 96 531 627>
DStem: 0 682 96 682 57 0 141 130 266 528 311 363 141 130 197 0 311 363 359.683 528 426 0 486 130 531 682 627 682 486 130 570 0
Fore
627 682 m 1
 570 0 l 2
 426 0 l 1
 311 363 l 2
 197 0 l 1
 57 0 l 1
 0 682 l 1
 96 682 l 2
 141 130 l 1
 266 528 l 0
 359.683 528 l 1
 486 130 l 0
 531 682 l 1
 627 682 l 1
EndSplineSet
KernsSLIF: 65 -26 0 0
EndChar
StartChar: X
Encoding: 88 88 12
Width: 538
Flags: W
HStem: 0 21G<0 111 395 511> 662 20G<-2 110 396 508>
DStem: -2 682 110 682 201 350 256 438 201 350 254 252 0 0 111 0 254 252 310 350 395 0 511 0 396 682 508 682 256 438 310 350
Fore
-2 682 m 0
 110 682 l 1
 256 438 l 1
 396 682 l 1
 508 682 l 1
 310 350 l 1
 511 0 l 1
 395 0 l 1
 254 252 l 1
 111 0 l 1
 0 0 l 1
 201 350 l 1
 -2 682 l 0
EndSplineSet
EndChar
StartChar: Y
Encoding: 89 89 13
Width: 544
Flags: W
HStem: 0 21G<195 302> 662 20G<-2 114 400 516>
VStem: 195 107<0 350>
DStem: -2 682 114 682 195 350 254 441
Fore
-2 682 m 1
 114 682 l 1
 254 441 l 1
 400 682 l 1
 516 682 l 1
 302 350 l 1
 302 0 l 1
 195 0 l 1
 195 350 l 1
 -2 682 l 1
EndSplineSet
KernsSLIF: 97 -59 0 0
EndChar
StartChar: Z
Encoding: 90 90 14
Width: 567
Flags: W
HStem: 0 85<167 537> 599 83<12 370>
DStem: 370 599 530 682 3 0 167 85
Fore
12 682 m 1
 0.299805 682 518.3 682 530 682 c 1
 167 85 l 1
 537 85 l 1
 537 0 l 1
 3 0 l 1
 370 599 l 1
 12 599 l 1
 12 682 l 1
EndSplineSet
EndChar
StartChar: bracketleft
Encoding: 91 91 15
Width: 292
Flags: W
HStem: -11 89<121 226> 629 96<26 226>
VStem: 26 95<-11 629>
Fore
226 -11 m 4
 26 -11 l 5
 26 725 l 4
 226 725 l 5
 226 629 l 5
 121 629 l 5
 121 78 l 5
 226 78 l 5
 226 -11 l 4
EndSplineSet
EndChar
StartChar: backslash
Encoding: 92 92 16
Width: 532
Flags: W
HStem: 0 21G<336 462>
DStem: 0 723 126 723 336 0 462 0
Fore
336 0 m 1
 0 723 l 1
 126 723 l 0
 462 0 l 1
 336 0 l 1
EndSplineSet
EndChar
StartChar: bracketright
Encoding: 93 93 17
Width: 284
Flags: W
HStem: -14 89<26 226> 626 96<26 131>
VStem: 131 95<75 722>
Fore
26 -14 m 0
 26 75 l 1
 131 75 l 1
 131 626 l 1
 26 626 l 1
 26 722 l 1
 226 722 l 0
 226 -14 l 1
 26 -14 l 0
EndSplineSet
EndChar
StartChar: asciicircum
Encoding: 94 94 18
Width: 451
Flags: W
HStem: 679 20G<148 251>
DStem: 148 699 201 626 -1 539 124 539 201 626 251 699 282 536 403 536
Fore
403 536 m 1
 282 536 l 1
 201 626 l 5
 124 539 l 0
 -1 539 l 1
 148 699 l 1
 251 699 l 1
 403 536 l 1
EndSplineSet
EndChar
StartChar: underscore
Encoding: 95 95 19
Width: 613
Flags: W
HStem: -127 95<26 556.742>
Fore
26 -128 m 1
 26 -32 l 1
 557 -32 l 1
 557 -127 l 1
 380.288 -127 203.516 -128 26 -128 c 1
EndSplineSet
EndChar
StartChar: grave
Encoding: 96 96 20
Width: 289
Flags: W
HStem: 609 119<23 220>
DStem: 23 728 137 728 105 609 220 609
Fore
220 609 m 5
 105 609 l 6
 23 728 l 6
 137 728 l 5
 220 609 l 5
EndSplineSet
EndChar
StartChar: a
Encoding: 97 97 21
Width: 484
Fore
329 76 m 17
 315.974 22.416 244.885 -16.75 195.54 -14 c 1
 48.1201 -14 6 77 6 188.32 c 0
 6 313.514 148.914 442.12 253.54 442.12 c 0
 266 442.12 378.32 451.738 396.149 294.491 c 0
 439.37 2.37988 l 1
 342.71 2.37988 l 1
 329 76 l 17
101.204 186.48 m 0
 101.204 85 153.177 82.4404 191.473 82.4404 c 0
 245.831 82.4404 293.741 146.4 293.741 213.48 c 0
 293.741 236.913 296.741 256.622 295.517 273.05 c 0
 294.723 283.729 293.409 293.021 291.244 301.049 c 0
 282.769 332.467 260 344.52 249.473 344.52 c 0
 195.115 344.52 101.204 258.814 101.204 186.48 c 0
EndSplineSet
EndChar
StartChar: b
Encoding: 98 98 22
Width: 469
Flags: W
HStem: 0 21G<26 122> 662 20G<26 122>
VStem: 26 96<0 24.0654 230 682>
Fore
122 0 m 21
 26 0 l 5
 26 42 l 5
 26 230 l 5
 26 682 l 5
 122 682 l 5
 122 386.557 l 21
 158.571 419.509 200.799 442.12 240.46 442.12 c 4
 345.086 442.12 424 340.514 424 215.32 c 4
 424 90.126 368.88 -14 221.46 -14 c 5
 190.277 -15.7379 122 24.0654 122 24.0654 c 4
 122 24.0654 122 9.38574 122 0 c 21
328.796 213.48 m 4
 328.796 285.814 298.885 344.52 244.527 344.52 c 5
 175 330 123.259 266 123.259 213.48 c 5
 123.259 144 171.169 82.4404 225.527 82.4404 c 4
 263.823 82.4404 328.796 99.5996 328.796 213.48 c 4
EndSplineSet
EndChar
StartChar: c
Encoding: 99 99 23
Width: 411
Flags: W
Fore
350 380 m 13
 328.16 352.7 294 310 294 310 c 4
 280 324 244 344.52 195.473 344.52 c 5
 141.115 344.52 97.2041 285.814 97.2041 213.48 c 4
 97.2041 99.5996 179.177 81.4404 217.473 81.4404 c 4
 248.493 81.4404 291.414 109.488 310.529 139.615 c 13
 368 68 l 5
 356 40 273 -15 221.54 -15 c 5
 74.1201 -15 2 90.126 2 215.32 c 4
 2 340.514 94.9141 442.12 199.54 442.12 c 4
 256 442.12 313.429 412.952 350 380 c 13
EndSplineSet
EndChar
StartChar: d
Encoding: 100 100 24
Width: 450
Flags: W
HStem: 0 21G<302 398> 662 20G<302 398>
VStem: 302 96<0 24.0654 386 682>
Fore
302 0 m 13
 302 9.38574 302 24.0654 302 24.0654 c 4
 302 24.0654 233.724 -15.7383 202.54 -14 c 5
 55.1201 -14 0 90.126 0 215.32 c 4
 0 340.514 78.9141 442.12 183.54 442.12 c 4
 223.201 442.12 265.429 419.509 302 386.557 c 13
 302 682 l 5
 398 682 l 5
 398 230 l 5
 398 42 l 5
 398 0 l 5
 302 0 l 13
95.2041 213.48 m 4
 95.2041 99.5996 160.177 82.4404 198.473 82.4404 c 4
 252.831 82.4404 300.741 144 300.741 213.48 c 5
 300.741 266 249 330 179.473 344.52 c 5
 125.115 344.52 95.2041 285.814 95.2041 213.48 c 4
EndSplineSet
EndChar
StartChar: e
Encoding: 101 101 25
Width: 458
Flags: W
HStem: 170 96<111 414>
Fore
111.407 266 m 0
 310.246 266 l 0
 299.518 303.654 271.945 344.52 201.473 344.52 c 1
 161.148 344.52 126.571 312.212 111.407 266 c 0
107.93 170 m 0
 125.91 94.7451 190.692 81.4404 223.473 81.4404 c 0
 254.493 81.4404 288 90 306.529 109.615 c 9
 370 47 l 1
 350 16 292 -14 227.54 -15 c 1
 80.1201 -15 8 90.126 8 215.32 c 0
 8 340.514 100.914 442.12 205.54 442.12 c 1
 324.838 442.12 389.945 352.018 409.007 266 c 0
 416.06 234.176 413.999 204.991 414 170 c 17
 107.93 170 l 0
409.007 266 m 0
EndSplineSet
KernsSLIF: 116 -26 0 0
EndChar
StartChar: f
Encoding: 102 102 26
Width: 464
Flags: W
HStem: 0 21G<131 227> 338 96<28 131 227 327> 662 20G<131 227>
VStem: 131 96<434 682>
Fore
227 657.935 m 17,0,0
227.183 338 m 0,0,0
 227 0 l 1,2,-1
 131 0 l 1,1,-1
 131 338 l 0,0,0
 28 338 l 1,2,-1
 28 434 l 1,1,-1
 131 434 l 0,0,0
 131 682 l 1,1,-1
 227 682 l 9,0,0
 227 672.614 227 657.935 227 657.935 c 0,0,0
 227 657.935 295.276 697.738 326.46 696 c 1,1,2
 371.607 696 408.098 686.234 437 669.088 c 9,0,0
 379 588.662 l 17,0,0
 362.271 597.243 344.599 599.56 330.527 599.56 c 0,1,2
 276.169 599.56 227.259 538 227.259 468.52 c 1,0,0
 227.235 434 l 0,0,0
 327 434 l 1,2,-1
 327 338 l 1,1,-1
 227.183 338 l 0,0,0
EndSplineSet
KernsSLIF: 97 -39 0 0 110 -33 0 0 121 -20 0 0 116 -61 0 0 117 -40 0 0 111 -20 0 0
EndChar
StartChar: g
Encoding: 103 103 27
Width: 450
Flags: W
HStem: 416 20G<302 398>
VStem: 398 0<0 42>
Fore
302 0 m 29
 302 9.38574 302 24.0654 302 24.0654 c 4
 302 24.0654 233.724 -15.7383 202.54 -14 c 5
 55.1201 -14 0 90.126 0 215.32 c 4
 0 340.514 78.9141 442.12 183.54 442.12 c 4
 223.201 442.12 265.429 419.509 302 386.557 c 13
 302 436 l 5
 398 436 l 5
 398 230 l 5
 398 42 l 5
 398 0 l 5
 398 6 l 5
 398 -18 l 5
 397.33 -59.2988 374 -118 360 -132 c 5
 340.522 -153.904 327.003 -172.429 307.46 -185.935 c 5
 307.46 -185.935 233.184 -223.738 202 -222 c 5
 54.5801 -222 8 -108 -0.540039 -46.6797 c 4
 -0.540039 -46.6797 57.5342 -47.8018 94.6641 -48.5195 c 21
 102 -100 159.637 -125.56 197.933 -125.56 c 4
 252.291 -125.56 302.201 -64 302.201 5.48047 c 5
 302 0 l 29
95.2041 213.48 m 4
 95.2041 99.5996 160.177 82.4404 198.473 82.4404 c 4
 252.831 82.4404 300.741 144 300.741 213.48 c 5
 300.741 266 249 330 179.473 344.52 c 5
 125.115 344.52 95.2041 285.814 95.2041 213.48 c 4
EndSplineSet
EndChar
StartChar: h
Encoding: 104 104 28
Width: 469
Flags: W
HStem: 0 21G<26 122 328 425> 662 20G<26 122>
VStem: 26 96<0 24.0654 230 682> 328 96<0 215>
Fore
122 24.0654 m 4
 122 24.0654 122 9.38574 122 0 c 21
 26 0 l 5
 26 42 l 5
 26 230 l 5
 26 682 l 5
 122 682 l 5
 122 386.557 l 21
 158.571 419.509 200.799 442.12 240.46 442.12 c 4
 345.086 442.12 424 340.514 424 215.32 c 4
 425 -0 l 5
 328 0 l 4
 328.796 213.48 l 4
 328.796 285.814 298.885 344.52 244.527 344.52 c 5
 175 330 122.259 266 122.259 213.48 c 5
 122 24.0654 l 4
EndSplineSet
EndChar
StartChar: i
Encoding: 105 105 29
Width: 266
Flags: W
HStem: 416 20G<38 134> 526 96<38 134>
VStem: 38 96<526 622>
Fore
38.7959 132.16 m 1
 38 436 l 1
 134 436 l 0
 134 134 l 0
 134 83.2783 179.796 77.4805 201.796 77.4805 c 1
 237.796 77.4805 l 1
 237.796 -14.5195 l 1
 201.796 -14.5195 l 1
 101.796 -14.5195 38.7959 53.4805 38.7959 132.16 c 1
38 622 m 1
 134 622 l 1
 134 526 l 1
 38 526 l 1
 38 622 l 1
EndSplineSet
EndChar
StartChar: j
Encoding: 106 106 30
Width: 404
Flags: W
HStem: -220 94<165 170> -220 170<-7 165> 416 20G<232 329> 526 96<232 328>
VStem: 231 98<0 436 526 622>
Fore
232 622 m 1x38
 328 622 l 1
 328 526 l 1
 232 526 l 1
 232 622 l 1x38
-7 -50 m 9x78
 89 -48 l 1
 97 -88 105 -126 165 -126 c 1
 225 -126 231 -28.6357 231 0 c 1
 232 436 l 1
 329 436 l 0
 329 0 l 1
 329 -152 243 -220 165 -220 c 1xb8
 49 -220 5 -114 -7 -50 c 9x78
EndSplineSet
EndChar
StartChar: k
Encoding: 107 107 31
Width: 431
Flags: W
HStem: 0 21G<26 122> 416 20G<242 372> 662 20G<26 122>
VStem: 26 96<0 156>
DStem: 122.213 212.844 193.226 276.768 278.932 0.00390625 395 0 242 436 372 436 121.741 329.076 193.226 276.768
Fore
193.226 276.768 m 0
 395 0 l 1
 278.932 0.00390625 l 1
 231.779 64.247 165.868 153.367 122.213 212.844 c 1
 122 156 l 1
 122 24.0654 l 0
 122 24.0654 122 9.38574 122 0 c 17
 26 0 l 1
 26 42 l 1
 26 230 l 1
 26 682 l 1
 122 682 l 1
 121.741 329.076 l 17
 242 436 l 1
 372 436 l 1
 193.226 276.768 l 0
EndSplineSet
KernsSLIF: 119 -52 0 0
EndChar
StartChar: l
Encoding: 108 108 32
Width: 277
Flags: W
HStem: -14 92<192.663 244> 662 20G<46 142>
VStem: 46 96<134 681.733>
Fore
142.204 134.52 m 0
 142.204 83.7979 186 78 208 78 c 1
 244 78 l 1
 244 -14 l 1
 208 -14 l 1
 108 -14 46 54 46 132.68 c 1
 46 682 l 1
 142 682 l 1
 142.124 499.398 142.204 316.926 142.204 134.52 c 0
EndSplineSet
EndChar
StartChar: m
Encoding: 109 109 33
Width: 687
Flags: W
HStem: 0 21G<26 122 288 384 546 642> 416 20G<26 122>
VStem: 26 96<0 436> 288 96<0 215> 546 96<0 215>
Fore
383.125 240.26 m 0
 383.706 232.07 384 223.748 384 215.32 c 0
 384 0 l 1
 288 0 l 0
 288.796 213.48 l 0
 288.796 285.814 272.885 344.52 218.527 344.52 c 1
 158 332 122.259 266 122.259 213.48 c 0
 122.259 213.48 122.101 83.2568 122 0 c 17
 26 0 l 1
 26 436 l 1
 122 436 l 1
 122 386.557 l 17
 152 414 178 442.12 214.46 442.12 c 0
 272.905 442.12 318.958 410.415 348.227 360.604 c 0
 375 391.557 l 1
 405 419 436 442.12 472.46 442.12 c 0
 577.086 442.12 642 340.514 642 215.32 c 0
 642 0 l 1
 546 0 l 0
 546.796 213.48 l 0
 546.796 285.814 530.885 344.52 476.527 344.52 c 1
 425.981 334.064 392.72 286.312 383.125 240.26 c 0
EndSplineSet
EndChar
StartChar: n
Encoding: 110 110 34
Width: 470
Flags: W
HStem: 0 21G<26 122 328 425> 416 20G<26 122>
VStem: 26 96<0 24.0654 230 436> 328 96<0 215>
Fore
122 24.0654 m 0
 122 24.0654 122 9.38574 122 0 c 17
 26 0 l 1
 26 42 l 1
 26 230 l 1
 26 436 l 1
 122 436 l 1
 122 386.557 l 17
 158.571 419.509 200.799 450.12 240.46 450.12 c 4
 345.086 450.12 424 340.514 424 215.32 c 0
 425 -0 l 1
 328 0 l 0
 328.796 213.48 l 0
 328.796 285.814 298.885 352.52 244.527 352.52 c 5
 175 338 122.259 266 122.259 213.48 c 1
 122 24.0654 l 0
EndSplineSet
EndChar
StartChar: o
Encoding: 111 111 35
Width: 489
Flags: W
VStem: 354 96<193 227>
Fore
231.54 -14 m 1
 94 -14 0 78 0 215.32 c 0
 0 332 102 442.12 229.54 442.12 c 0
 358.774 442.12 450 332 450 204 c 1
 450 64 362 -14 231.54 -14 c 1
95.2041 213.48 m 0
 95.2041 124 174 82.4404 227.473 82.4404 c 0
 276 82.4404 354 122 354 208 c 1
 354 300 282 344.52 227.473 344.52 c 1
 173.115 344.52 95.2041 296 95.2041 213.48 c 0
EndSplineSet
EndChar
StartChar: p
Encoding: 112 112 36
Width: 451
Flags: W
HStem: -206 21G<20 116> 416 20G<20 116>
VStem: 20 96<-206 24.0654 230 436>
Fore
116 -206 m 21
 20 -206 l 5
 20 42 l 5
 20 230 l 5
 20 436 l 5
 116 436 l 5
 116 386.557 l 21
 152.571 419.509 194.799 442.12 234.46 442.12 c 4
 339.086 442.12 418 340.514 418 215.32 c 4
 418 90.126 362.88 -14 215.46 -14 c 5
 184.277 -15.7383 116 24.0654 116 24.0654 c 4
 116 24.0654 116 -116.274 116 -206 c 21
322.796 213.48 m 4
 322.796 285.814 292.885 344.52 238.527 344.52 c 5
 169 330 117.259 266 117.259 213.48 c 5
 117.259 144 165.169 82.4404 219.527 82.4404 c 4
 257.823 82.4404 322.796 99.5996 322.796 213.48 c 4
EndSplineSet
EndChar
StartChar: q
Encoding: 113 113 37
Width: 457
Flags: W
HStem: 416 20G<303 399>
VStem: 303 96<-88 21 386 436>
Fore
457 -220 m 1
 366 -220 304 -174 304 -88 c 1
 303 24.0654 l 0
 303 24.0654 234.724 -15.7383 203.54 -14 c 1
 56.1201 -14 1 90.126 1 215.32 c 0
 1 340.514 79.9141 442.12 184.54 442.12 c 0
 224.201 442.12 266.429 419.509 303 386.557 c 9
 303 436 l 1
 399 436 l 1
 399 230 l 1
 399 42 l 1
 399 -72 l 1
 399 -110 422 -124 457 -124 c 1
 457 -220 l 1
96.2041 213.48 m 0
 96.2041 99.5996 161.177 82.4404 199.473 82.4404 c 0
 253.831 82.4404 301.741 144 301.741 213.48 c 1
 301.741 266 250 330 180.473 344.52 c 1
 126.115 344.52 96.2041 285.814 96.2041 213.48 c 0
EndSplineSet
EndChar
StartChar: r
Encoding: 114 114 38
Width: 422
Flags: W
HStem: 0 21G<26 122> 416 20G<26 122>
VStem: 26 96<0 24.0654 230 436>
Fore
348 325 m 1
 337.239 332.198 258.716 344.52 244.527 344.52 c 1
 175 330 122.259 266 122.259 213.48 c 1
 122 24.0654 l 0
 122 24.0654 122 9.38574 122 0 c 17
 26 0 l 1
 26 42 l 1
 26 230 l 1
 26 436 l 1
 122 436 l 1
 122 386.557 l 17
 158.571 419.509 200.799 442.12 240.46 442.12 c 0
 270.108 442.12 355.691 429.543 380 415 c 1
 348 325 l 1
EndSplineSet
KernsSLIF: 101 -20 0 0
EndChar
StartChar: s
Encoding: 115 115 39
Width: 399
Flags: W
HStem: -14 96<163 182> 170 93<164.158 183>
Fore
178.06 170 m 4
 95.2598 170 8.05957 231.56 8.05957 308.179 c 4
 8.05957 384.797 95.2598 446.98 178.06 446.98 c 4
 250.06 446.98 324 392 344.434 346.836 c 5
 258.229 310.328 l 4
 249.872 330.599 203.761 351 179.06 351 c 4
 156.06 351 104.06 340 104.06 311 c 4
 104.06 278 147.044 263 179.06 263 c 4
 256.06 263 351.5 198 351.5 126.774 c 4
 351.5 48 260.06 -14 180 -14 c 4
 103.817 -14 14.71 38.3369 4.07715 106.402 c 13
 41.6338 110.276 100.375 121.623 100.375 116.335 c 4
 103.42 89.1865 152.06 82 178.06 82 c 4
 202.06 82 256.06 90 256.06 122 c 4
 256.06 150 204.06 170 178.06 170 c 4
EndSplineSet
EndChar
StartChar: t
Encoding: 116 116 40
Width: 439
Flags: W
HStem: -14 92<314 350> 340 96<22 151 248 403>
VStem: 151 97<436 588>
Fore
151 340 m 0
 22 340 l 1
 22 436 l 1
 151 436 l 0
 151 588 l 1
 248 588 l 0
 248.053 436 l 0
 403 436 l 1
 403 340 l 1
 248.101 340 l 0
 248.204 134.52 l 4
 248.204 83.7979 292 78 314 78 c 5
 350 78 l 5
 350 -14 l 5
 314 -14 l 5
 214 -14 151 54 151 132.68 c 5
 151 340 l 0
EndSplineSet
EndChar
StartChar: u
Encoding: 117 117 41
Width: 481
Flags: W
HStem: -1 21G<329 425> 415 20G<26 123 329 425>
VStem: 26 97<219 435> 329 96<-1 205 410 435>
Fore
329 410.935 m 4
 329 410.935 329 425.614 329 435 c 21
 425 435 l 5
 425 393 l 5
 425 205 l 5
 425 -1 l 5
 329 -1 l 5
 329 48.4434 l 21
 292.429 15.4912 250.201 -13.1201 210.54 -13.1201 c 4
 105.914 -13.1201 26 94.4863 26 219.68 c 4
 26 435 l 5
 123 435 l 4
 123.204 221.52 l 4
 123.204 149.186 152.115 84.4805 206.473 84.4805 c 5
 276 99 328.741 169 328.741 221.52 c 5
 329 410.935 l 4
EndSplineSet
EndChar
StartChar: v
Encoding: 118 118 42
Width: 475
Flags: W
HStem: -0 21G<206.487 226 226 243.266> 415 20G<0 103 344 447>
DStem: 0 435 103 435 206.487 -0 225 191 344 435 447 435 225 191 243.266 -0
Fore
206.487 -0 m 4
 0 435 l 5
 103 435 l 5
 225 191 l 5
 344 435 l 21
 447 435 l 5
 243.266 -0 l 4
 226 0 l 5
 206.487 -0 l 4
EndSplineSet
EndChar
StartChar: w
Encoding: 119 119 43
Width: 555
Flags: W
HStem: 415 20G<10 113 455.734 558.734>
DStem: 10 435 113 435 146.487 0 185 204 455.734 435 558.734 435 386.734 201 425 0
Fore
284 191 m 1
 203.266 0 l 1
 201.314 0 144.536 0 146.487 0 c 1
 10 435 l 1
 113 435 l 1
 185 204 l 1
 252.545 350 l 0
 252.545 350 292.006 350 317.234 350 c 17
 386.734 201 l 1
 455.734 435 l 17
 558.734 435 l 1
 425 0 l 1
 423.049 0 366.271 0 368.222 0 c 1
 284 191 l 1
EndSplineSet
EndChar
StartChar: x
Encoding: 120 120 44
Width: 494
Flags: W
HStem: 416 20G<0.53418 117.951 314.049 431.466>
DStem: 0.53418 436 117.951 436 158 219.106 216.443 300.336 314.049 436 431.466 436 216.443 300.336 274.709 220.082
Fore
117.951 436 m 4
434.853 -0.5 m 13,2,-1
 317.436 -0.5 l 21,0,1
 318.422 -1.85742 216.986 137.86 216 139.218 c 5,0,0
 120 -0.5 l 5,6,7
 0 -0.5 l 5,8,-1
 -0.977539 -1.8584 157.023 217.748 158 219.106 c 5,0,0
 0.53418 436 l 13,5,-1
 46.3271 436 117.951 436 117.951 436 c 4,3,4
 216.443 300.336 l 4,0,0
 314.049 436 l 5,9,-1
 431.466 436 l 5,10,-1
 274.709 220.082 l 5,0,0
 259.681 240.782 419.824 20.2002 434.853 -0.5 c 13,2,-1
EndSplineSet
EndChar
StartChar: y
Encoding: 121 121 45
Width: 478
Flags: W
HStem: 416 20G<26 122 327 424>
VStem: 26 96<213 435>
Fore
26 436 m 9
 122 436 l 1
 121.565 361.417 121.204 287.458 121.204 213.48 c 0
 121.204 99.5996 186.177 95.4404 224.473 95.4404 c 0
 278.831 95.4404 326.741 144 326.741 213.48 c 0
 326.848 287.575 327 361.696 327 436 c 1
 424 436 l 1
 424 230 l 1
 424 55 l 1
 424 -5 l 1
 423.33 -46.2988 400 -118 386 -132 c 1
 366.522 -153.904 353.003 -172.429 333.46 -185.935 c 1
 333.46 -185.935 259.184 -223.738 228 -222 c 1
 80.5801 -222 34 -108 25.46 -46.6797 c 0
 25.46 -46.6797 83.5342 -47.8018 120.664 -48.5195 c 17
 128 -100 185.637 -125.56 223.933 -125.56 c 0
 278.291 -125.56 328.201 -51 328.201 18.4805 c 0
 328 37.0654 l 1
 328 37.0654 259.724 -2.73828 228.54 -1 c 1
 81.1201 -1 26 90.126 26 215.32 c 0
 26 227.84 26 444 26 436 c 9
EndSplineSet
EndChar
StartChar: z
Encoding: 122 122 46
Width: 468
Flags: W
HStem: 0 96<184 409.89> 340 96<26 246>
Fore
184 96 m 1
 410 96 l 1
 410 0 l 1
 273.381 -0.214753 136.913 -0.579209 0 -0.5 c 0
 -0.105788 -0.647005 245.778 340.692 246 341 c 2
 26 340 l 1
 26 436 l 1
 431.466 436 l 1
 184 96 l 1
EndSplineSet
EndChar
StartChar: braceleft
Encoding: 123 123 21
Width: 318
Flags: W
Fore
-3 350 m 5
 129 392 76 587 102 648 c 5
 132 709 210.333 709.057 277 711 c 5
 277 615 l 5
 242 622.46 212 612 195 588 c 5
 176 554 219 396 125 350 c 5
 219 312 176 146 195 112 c 5
 212 88 242 77.54 277 85 c 5
 277 -11 l 5
 210.333 -9.05664 132 -9 102 52 c 5
 76 113 129 310 -3 350 c 5
EndSplineSet
EndChar
StartChar: bar
Encoding: 124 124 22
Width: 180
Flags: W
HStem: 0 21G<26 122> 680 20G<26 122>
VStem: 26 96<0 700>
Fore
26 0 m 17
 26 700 l 1
 122 700 l 1
 122 0 l 9
 26 0 l 17
EndSplineSet
EndChar
StartChar: braceright
Encoding: 125 125 22
Width: 318
Flags: W
Fore
306 350 m 5
 174 310 227 113 201 52 c 5
 171 -9 92.667 -9.05664 26 -11 c 5
 26 85 l 5
 61 77.54 91 88 108 112 c 5
 127 146 84 312 178 350 c 5
 84 396 127 554 108 588 c 5
 91 612 61 622.46 26 615 c 5
 26 711 l 5
 92.667 709.057 171 709 201 648 c 5
 227 587 174 392 306 350 c 5
EndSplineSet
EndChar
StartChar: asciitilde
Encoding: 126 126 23
Width: 10955
Flags: W
Fore
25.5801 388 m 21
 48.2295 406 76.8408 435 113.796 435 c 5
 162.672 436 193.666 361 244.927 361 c 5
 279.497 361 306.916 387 336.718 409 c 13
 336.718 313 l 21
 306.916 290 280.689 265 244.927 265 c 5
 190.09 265 160.287 340 113.796 339 c 5
 75.6475 339 52.998 314 25.5801 292 c 13
 25.5801 388 l 21
EndSplineSet
EndChar
StartChar: .notdef
Encoding: 127 127 24
Width: -32768
Flags: W
Fore
424.831 452.188 m 0
 422.025 458.252 387.12 457.553 374.417 455.014 c 0
 351.225 450.385 332.071 445.638 335.146 433.789 c 0
 338.223 421.939 361.642 420.313 385.561 426.243 c 0
 397.245 429.141 428.752 443.718 424.831 452.188 c 0
122.242 451.633 m 0
 118.322 443.161 149.828 428.585 161.515 425.688 c 0
 185.432 419.758 208.852 421.384 211.929 433.233 c 0
 215.002 445.082 195.849 449.828 172.656 454.458 c 0
 159.953 456.995 125.048 457.696 122.242 451.633 c 0
278.505 335.518 m 1
 303.448 335.09 323.492 348.074 320.985 365.416 c 1
 288.927 383.586 259.833 380.693 232.484 365.416 c 1
 231.278 341.288 256 336 278.505 335.518 c 1
209.244 313.749 m 25
 237.795 265.968 l 25
 232.484 311.603 l 17
 261.395 298.247 295.616 302.913 324.526 310.028 c 9
 320.526 262.82 l 25
 343.995 311.603 l 25
 333.375 323.78 l 17
 282.415 308.137 266.115 308.045 216.555 322.207 c 9
 209.244 313.749 l 25
133.363 644.279 m 9
 193.544 538.846 l 17
 247.825 554.845 298.565 552.098 352.847 538.846 c 9
 409.486 649 l 17
 458 546 542.238 490 542.238 396.274 c 1
 542.238 350 462 252 374.087 214.37 c 1
 328 194 238 198 190.004 214.37 c 1
 94 256 9.46191 350 9.46191 393.128 c 1
 9.46191 494 87.6201 546.473 133.363 644.279 c 9
EndSplineSet
EndChar
StartChar: exclamdown
Encoding: 161 161 25
Width: 220
Flags: W
HStem: 414 20G<63 159> 516 138<111 123>
VStem: 63 96<-40 434>
Fore
42 585 m 4
 42 623.088 72.9121 654 111 654 c 4
 149.088 654 180 623.088 180 585 c 4
 180 546.912 149.088 516 111 516 c 4
 72.9121 516 42 546.912 42 585 c 4
159 434 m 5
 159 -40 l 5
 63 -40 l 5
 63 434 l 5
 159 434 l 5
EndSplineSet
EndChar
StartChar: brokenbar
Encoding: 166 166 26
Width: 180
Flags: W
HStem: 0 21G<26 122> 680 20G<26 122>
VStem: 26 96<0 325 375 700>
Fore
122 325 m 21
 122 0 l 5
 26 0 l 5
 26 325 l 13
 122 325 l 21
26 375 m 21
 26 700 l 5
 122 700 l 5
 122 375 l 13
 26 375 l 21
EndSplineSet
EndChar
StartChar: dieresis
Encoding: 168 168 27
Width: 439
Flags: W
Fore
86.6396 344.64 m 0
 121.615 344.64 150 373.025 150 408 c 0
 150 442.975 121.615 471.36 86.6396 471.36 c 0
 51.665 471.36 23.2803 442.975 23.2803 408 c 0
 23.2803 373.025 51.665 344.64 86.6396 344.64 c 0
317.92 344.64 m 0
 352.896 344.64 381.28 373.025 381.28 408 c 0
 381.28 442.975 352.896 471.36 317.92 471.36 c 0
 282.945 471.36 254.561 442.975 254.561 408 c 0
 254.561 373.025 282.945 344.64 317.92 344.64 c 0
EndSplineSet
LCarets: 0 65535 '    ' 1 0 
Ligature: 0 1 'liga' space uni0308
EndChar
StartChar: degree
Encoding: 176 176 28
Width: 337
Flags: W
HStem: 447 74<145.154 158> 625 74<145.154 158>
VStem: 28 77<562.6 576> 205 79<562.6 576>
Fore
105 573 m 0
 105 544.296 127.4 521 155 521 c 0
 182.6 521 205 544.296 205 573 c 0
 205 601.704 182.6 625 155 625 c 0
 127.4 625 105 601.704 105 573 c 0
28 573 m 0
 28 642.552 85.3438 699 156 699 c 0
 226.656 699 284 642.552 284 573 c 0
 284 503.448 226.656 447 156 447 c 0
 85.3438 447 28 503.448 28 573 c 0
EndSplineSet
EndChar
StartChar: acute
Encoding: 180 180 29
Width: 289
Flags: W
HStem: 609 119<24 221>
DStem: 107 728 221 728 24 609 139 609
Fore
24 609 m 1
 139 609 l 2
 221 728 l 2
 107 728 l 1
 24 609 l 1
EndSplineSet
LCarets: 0 65535 '    ' 1 0 
Ligature: 0 1 'liga' space acutecomb
EndChar
StartChar: cedilla
Encoding: 184 184 30
Width: 232
Flags: W
Fore
29 -93 m 1
 43.6445 -82.0166 75 -59.8086 75 -42 c 0
 75 -26.1748 64 -14 48 9 c 0
 141.33 36 l 0
 162 16 182 -14 182 -48 c 0
 182 -101.926 114 -132 80 -154 c 1
 29 -93 l 1
EndSplineSet
LCarets: 0 65535 '    ' 1 0 
Ligature: 0 1 'liga' space uni0327
EndChar
